<svg version="1.1" id="svg1" inkscape:version="1.3 (0e150ed6c4, 2023-07-21)" sodipodi:docname="coded-berries-logo-svg.svg" xmlns:inkscape="http://www.inkscape.org/namespaces/inkscape" xmlns:sodipodi="http://sodipodi.sourceforge.net/DTD/sodipodi-0.dtd" xmlns="http://www.w3.org/2000/svg" xmlns:svg="http://www.w3.org/2000/svg" width="20mm" height="20mm" viewBox="104 128 1 27">
  <g id="g162" transform="matrix(1.4459129,0,0,1.4459129,-747.82192,410.62943)">
      <path id="path160" style="fill:#0baa00;fill-opacity:1;stroke:none;stroke-width:6.53715;stroke-linejoin:miter;stroke-dasharray:none;paint-order:markers stroke fill" d="m 589.78682,-190.10183 a 4.0857305,4.0857305 0 0 0 -1.05732,-3.94649 4.0857305,4.0857305 0 0 0 -3.94648,-1.05732 4.0857305,4.0857305 0 0 0 1.05731,3.94649 4.0857305,4.0857305 0 0 0 3.94649,1.05732 z"/>
      <path style="font-size:48px;font-family:Impact;-inkscape-font-specification:Impact;white-space:pre;fill:#aa0000;stroke-width:7.99999;paint-order:markers stroke fill" d="m 595.89572,-182.17705 c -0.45062,0.004 -0.78961,0.13849 -1.01698,0.40308 -0.22738,0.26458 -0.34107,0.85162 -0.34107,1.76113 0,0.7028 -0.0248,1.22163 -0.0744,1.55649 -0.0496,0.339 -0.17363,0.62219 -0.37209,0.84956 -0.19843,0.22738 -0.45474,0.39068 -0.76893,0.4899 -0.3142,0.10335 -0.75862,0.15503 -1.33326,0.15503 h -1.387 v -1.48828 c 0.57464,0 1.98437,-0.0599 2.11254,-0.17984 0.13229,-0.11989 0.20258,-0.3638 0.21085,-0.73174 0.0248,-1.05833 0.062,-1.73632 0.1116,-2.03398 0.0537,-0.30179 0.15709,-0.58291 0.31006,-0.84336 0.15709,-0.26045 0.40308,-0.48783 0.73795,-0.68213 -0.35553,-0.23151 -0.60357,-0.45889 -0.74414,-0.68213 -0.14057,-0.22324 -0.23565,-0.46509 -0.28525,-0.72554 -0.0496,-0.26458 -0.0868,-0.7524 -0.11162,-1.46347 -0.0248,-0.7152 -0.0537,-1.12448 -0.0868,-1.22783 -0.0331,-0.10336 -0.11369,-0.19224 -0.24186,-0.26666 -0.12402,-0.0744 -1.50275,-0.11161 -2.01951,-0.11161 v -1.48208 h 1.387 c 0.66146,0 1.17202,0.0765 1.53167,0.22944 0.35967,0.14883 0.62013,0.39481 0.78137,0.73794 0.16122,0.34313 0.24183,0.8971 0.24183,1.66191 0,0.87643 0.031,1.42834 0.093,1.65571 0.0661,0.22738 0.17981,0.43615 0.34104,0.62632 0.16537,0.18604 0.47336,0.28732 0.92398,0.30386 z" id="path161" sodipodi:nodetypes="csscscscccccccsccscccscsscccc"/>
      <path style="font-size:48px;font-family:Impact;-inkscape-font-specification:Impact;white-space:pre;fill:#aa0000;stroke-width:7.99999;paint-order:markers stroke fill" d="m 583.73539,-182.17705 v -1.48828 c 0.45062,-0.004 0.78961,-0.13643 1.01697,-0.39688 0.22739,-0.26458 0.34108,-0.85576 0.34108,-1.77353 0,-0.69867 0.0248,-1.21543 0.0744,-1.55029 0.0537,-0.339 0.17981,-0.62219 0.37824,-0.84956 0.19844,-0.22738 0.45476,-0.39068 0.76896,-0.4899 0.31419,-0.10335 0.75861,-0.15503 1.33327,-0.15503 h 1.38696 v 1.48208 c -0.59944,0 -2.01743,0.062 -2.13732,0.18604 -0.11575,0.12402 -0.17776,0.36587 -0.18603,0.72554 -0.0248,0.99218 -0.0579,1.63711 -0.0992,1.93476 -0.0372,0.29766 -0.12816,0.58291 -0.27287,0.85577 -0.14055,0.26871 -0.40513,0.52709 -0.79375,0.77514 0.36795,0.22324 0.63461,0.48989 0.79997,0.79995 0.16949,0.31006 0.26871,0.75654 0.29766,1.33945 l 0.093,1.80454 c 0.0372,0.17364 0.12609,0.30386 0.26667,0.39068 0.14055,0.0909 1.52134,0.13642 2.0257,0.13642 v 1.48829 h -1.38077 c -0.66146,0 -1.17203,-0.0765 -1.5317,-0.22945 -0.35968,-0.14883 -0.62013,-0.39481 -0.78135,-0.73794 -0.16123,-0.34313 -0.24185,-0.8971 -0.24185,-1.66191 0,-0.84336 -0.0289,-1.38286 -0.0868,-1.61851 -0.0579,-0.23564 -0.16949,-0.45061 -0.33486,-0.64492 -0.16536,-0.19844 -0.47749,-0.30592 -0.93638,-0.32246 z" id="path162" sodipodi:nodetypes="cccscscscccccccccccccscssscc"/>
  </g>
</svg>